<?xml version="1.0" standalone="no"?>
<!DOCTYPE svg PUBLIC "-//W3C//DTD SVG 20010904//EN"
 "http://www.w3.org/TR/2001/REC-SVG-20010904/DTD/svg10.dtd">
<svg version="1.0" xmlns="http://www.w3.org/2000/svg"
 width="260.000000pt" height="260.000000pt" viewBox="0 0 260.000000 260.000000"
 preserveAspectRatio="xMidYMid meet">
<metadata>
Created by potrace 1.14, written by Peter Selinger 2001-2017
</metadata>
<g transform="translate(0.000000,260.000000) scale(0.100000,-0.100000)"
fill="#000000" stroke="none">
<path d="M610 2586 c-69 -21 -98 -34 -143 -65 -53 -37 -327 -310 -327 -326 0
-34 21 -35 663 -35 716 1 713 1 847 -71 93 -50 206 -136 264 -200 84 -93 160
-245 185 -369 20 -101 21 -115 22 -190 1 -177 -39 -320 -142 -509 -55 -101
-231 -262 -355 -324 -115 -58 -153 -62 -479 -58 l-70 1 1 793 c0 435 -4 801
-9 813 -18 43 -39 47 -268 46 -334 -1 -363 -13 -591 -243 -87 -88 -158 -163
-158 -167 0 -4 5 -14 10 -22 8 -12 55 -15 307 -15 l298 0 1 -761 1 -761 22
-39 c47 -83 26 -79 466 -79 372 1 394 2 475 23 285 76 605 339 756 622 70 130
132 304 149 421 3 14 9 53 14 85 10 60 8 338 -3 384 -3 14 -10 45 -15 70 -44
207 -131 388 -260 540 -162 191 -428 365 -650 423 -94 25 -98 25 -530 26 -330
0 -447 -4 -481 -13z"/>
</g>
</svg>
